<mxfile host="Electron" modified="2024-12-18T21:25:25.756Z" agent="Mozilla/5.0 (Windows NT 10.0; Win64; x64) AppleWebKit/537.36 (KHTML, like Gecko) draw.io/23.1.5 Chrome/120.0.6099.109 Electron/28.1.0 Safari/537.36" etag="qXVgz5XS8sbrp4-j15am" version="23.1.5" type="device">
  <diagram name="Page-1" id="XXAyXLQB6hv993nONeKZ">
    <mxGraphModel dx="1038" dy="555" grid="1" gridSize="10" guides="1" tooltips="1" connect="1" arrows="1" fold="1" page="1" pageScale="1" pageWidth="850" pageHeight="1100" math="0" shadow="0">
      <root>
        <mxCell id="0" />
        <mxCell id="1" parent="0" />
        <mxCell id="0gRphMnK4WmUFZygQRfF-4" style="edgeStyle=orthogonalEdgeStyle;rounded=0;orthogonalLoop=1;jettySize=auto;html=1;exitX=0.5;exitY=1;exitDx=0;exitDy=0;entryX=0.5;entryY=0;entryDx=0;entryDy=0;" edge="1" parent="1" source="0gRphMnK4WmUFZygQRfF-1" target="0gRphMnK4WmUFZygQRfF-3">
          <mxGeometry relative="1" as="geometry" />
        </mxCell>
        <mxCell id="0gRphMnK4WmUFZygQRfF-1" value="Clear the interrupt flag" style="rounded=0;whiteSpace=wrap;html=1;" vertex="1" parent="1">
          <mxGeometry x="290" y="180" width="120" height="60" as="geometry" />
        </mxCell>
        <mxCell id="0gRphMnK4WmUFZygQRfF-2" value="" style="endArrow=classic;html=1;rounded=0;entryX=0.5;entryY=0;entryDx=0;entryDy=0;" edge="1" parent="1" target="0gRphMnK4WmUFZygQRfF-1">
          <mxGeometry width="50" height="50" relative="1" as="geometry">
            <mxPoint x="350" y="70" as="sourcePoint" />
            <mxPoint x="410" y="30" as="targetPoint" />
          </mxGeometry>
        </mxCell>
        <mxCell id="0gRphMnK4WmUFZygQRfF-7" style="edgeStyle=orthogonalEdgeStyle;rounded=0;orthogonalLoop=1;jettySize=auto;html=1;exitX=1;exitY=0.5;exitDx=0;exitDy=0;entryX=0;entryY=0.5;entryDx=0;entryDy=0;" edge="1" parent="1" source="0gRphMnK4WmUFZygQRfF-3" target="0gRphMnK4WmUFZygQRfF-6">
          <mxGeometry relative="1" as="geometry" />
        </mxCell>
        <mxCell id="0gRphMnK4WmUFZygQRfF-3" value="Put the memory address of justCallTheOs in the stack memory that will pop into the pc" style="rounded=0;whiteSpace=wrap;html=1;" vertex="1" parent="1">
          <mxGeometry x="290" y="310" width="120" height="90" as="geometry" />
        </mxCell>
        <mxCell id="0gRphMnK4WmUFZygQRfF-6" value="Let the interrupt return" style="rounded=0;whiteSpace=wrap;html=1;" vertex="1" parent="1">
          <mxGeometry x="530" y="325" width="120" height="60" as="geometry" />
        </mxCell>
      </root>
    </mxGraphModel>
  </diagram>
</mxfile>
